<?xml version="1.0" encoding="UTF-8"?>
<svg width="67px" height="30px" viewBox="0 0 67 30" version="1.1" xmlns="http://www.w3.org/2000/svg" xmlns:xlink="http://www.w3.org/1999/xlink">
    <!-- Generator: Sketch 53 (72520) - https://sketchapp.com -->
    <title>symbol-on-dark</title>
    <desc>Created with Sketch.</desc>
    <g id="Page-1" stroke="none" stroke-width="1" fill="none" fill-rule="evenodd">
        <g id="Artboard-Copy-4" transform="translate(-1127.000000, -354.000000)" fill="#FFFFFF" fill-rule="nonzero">
            <g id="symbol-on-dark" transform="translate(1001.000000, 304.000000)">
                <g transform="translate(126.181818, 50.000000)" id="Shape">
                    <path d="M56.5889798,11.5196053 L56.5889798,11.5196053 C55.5916219,11.5745906 54.8289364,12.3993707 54.8876045,13.3341214 C54.9462726,14.2138868 55.7089581,14.9286962 56.5889798,14.9286962 L56.5889798,14.9286962 C57.5863377,14.8737108 58.3490232,14.0489308 58.2903551,13.11418 C58.2316869,12.2344146 57.5276696,11.5196053 56.5889798,11.5196053 Z"></path>
                    <path d="M60.6266894,7.06243117 C60.6266894,7.99565642 59.9096249,8.76419486 59.0389037,8.76419486 L53.4560442,8.76419486 C52.585323,8.81909047 51.8170396,8.10544763 51.7658207,7.17222237 C51.7146018,6.23899712 52.3804475,5.41556307 53.2511687,5.36066747 C53.3023876,5.36066747 53.3536065,5.36066747 53.4560442,5.36066747 L59.0389037,5.36066747 C59.9096249,5.30577187 60.6266894,6.12920591 60.6266894,7.06243117 Z"></path>
                    <path d="M65.2267216,11.5631322 L63.3857571,11.5631322 C62.5832855,11.5081947 61.8752222,12.2223817 61.828018,13.1563184 C61.7808138,14.0902552 62.3944686,14.914317 63.1969403,14.9692545 C63.2441445,14.9692545 63.2913487,14.9692545 63.3857571,14.9692545 L65.2267216,14.9692545 C66.0291932,14.914317 66.642848,14.0902552 66.5956438,13.1563184 C66.5956438,12.2773191 65.981989,11.5631322 65.2267216,11.5631322 Z"></path>
                    <path d="M66.1363636,18.2361171 C66.1363636,19.0943855 65.4354543,19.8011947 64.5843501,19.8011947 L48.0629158,19.8011947 C47.2118116,19.8516811 46.5609672,20.6089767 46.6110322,21.467245 C46.6610971,22.275027 47.3119415,22.9313499 48.0629158,22.9313499 L59.42766,22.9313499 C60.2787642,22.8808635 61.0297385,23.5371863 61.0798034,24.3954547 C61.1298684,25.253723 60.479024,26.0110186 59.6279198,26.061505 C59.5778549,26.061505 59.5277899,26.061505 59.42766,26.061505 L52.4686316,26.061505 C52.3184368,26.3139369 52.118177,26.5663688 51.9179171,26.8188006 C50.4660335,28.5858237 48.3633055,29.6965239 46.0603177,29.9994422 L7.81069405,29.9994422 C3.5551731,30.0499285 0.0506264257,26.6673415 0.000561473317,22.3759997 C-0.0495034791,18.1351444 3.25478338,14.6515846 7.41017443,14.5001255 L7.41017443,14.5001255 C7.41017443,8.89613799 11.9160202,4.35236436 17.4231649,4.35236436 C18.9751784,4.35236436 20.527192,4.70576898 21.9290106,5.41257821 C26.5349863,-0.645786627 35.196223,-1.80697322 41.2040173,2.88825953 C41.6546019,3.24166414 42.0551215,3.59506876 42.4556411,3.99895975 L47.3620065,3.99895975 C48.2131107,3.94847337 48.964085,4.60479623 49.0141499,5.46306458 C49.0642149,6.32133293 48.4133705,7.07862854 47.5622663,7.12911491 C47.5122013,7.12911491 47.4621364,7.12911491 47.3620065,7.12911491 L42.4055762,7.12911491 C41.554472,7.07862854 40.8034977,7.73495139 40.7534328,8.59321974 C40.7033678,9.4514881 41.3542122,10.2087837 42.2053164,10.2592701 C42.2553813,10.2592701 42.3054463,10.2592701 42.4055762,10.2592701 L51.4172676,10.2592701 C52.2683718,10.2087837 53.0193461,10.8651066 53.0694111,11.7233749 C53.119476,12.5816433 52.4686316,13.3389389 51.6175274,13.3894252 C51.5674625,13.3894252 51.5173975,13.3894252 51.4172676,13.3894252 L44.0076547,13.3894252 C43.1565505,13.4399116 42.5057061,14.1972072 42.555771,15.0554756 C42.605836,15.8632575 43.2566804,16.5195804 44.0076547,16.5195804 L64.5342852,16.5195804 C65.3853893,16.6205531 66.0862987,17.3273624 66.1363636,18.2361171 C66.1363636,18.2361171 66.1363636,18.2361171 66.1363636,18.2361171 Z"></path>
                </g>
            </g>
        </g>
    </g>
</svg>